<svg width="19" height="24" viewBox="0 0 19 24" fill="none" xmlns="http://www.w3.org/2000/svg">
<path fill-rule="evenodd" clip-rule="evenodd" d="M7.36115 0.599976L9.22591 0.599976C10.1963 0.599976 11.13 0.970713 11.8361 1.63636L17.3734 6.85659C18.3439 7.77777 18.8955 9.05576 18.9001 10.3938L18.9001 16.139C18.9001 17.2261 18.9001 18.0967 18.8426 18.8005C18.7836 19.5231 18.6594 20.1487 18.366 20.7245C17.8962 21.6465 17.1466 22.3961 16.2247 22.8659C15.6488 23.1593 15.0232 23.2834 14.3006 23.3425C13.5968 23.4 12.7261 23.4 11.6391 23.4H7.36115C6.27407 23.4 5.40339 23.4 4.69962 23.3425C3.97695 23.2834 3.35139 23.1593 2.77554 22.8659C1.85355 22.3961 1.10395 21.6465 0.634166 20.7245C0.340759 20.1487 0.216628 19.5231 0.157584 18.8005C0.100083 18.0967 0.10009 17.226 0.100098 16.1389V7.86103C0.10009 6.77395 0.100083 5.90327 0.157584 5.19949C0.216628 4.47683 0.340759 3.85127 0.634166 3.27542C1.10395 2.35343 1.85355 1.60382 2.77554 1.13404C3.35139 0.840637 3.97695 0.716506 4.69962 0.657462C5.40339 0.599961 6.27407 0.599968 7.36115 0.599976ZM4.8462 2.45148C4.23484 2.50143 3.87253 2.59529 3.59273 2.73786C3.00942 3.03506 2.53519 3.5093 2.23798 4.09261C2.09541 4.37241 2.00156 4.73472 1.95161 5.34607C1.9008 5.96793 1.9001 6.76502 1.9001 7.89998V16.1C1.9001 17.2349 1.9008 18.032 1.95161 18.6539C2.00156 19.2652 2.09541 19.6275 2.23798 19.9073C2.53519 20.4906 3.00942 20.9649 3.59273 21.2621C3.87253 21.4047 4.23484 21.4985 4.84619 21.5485C5.46805 21.5993 6.26514 21.6 7.4001 21.6H11.6001C12.7351 21.6 13.5321 21.5993 14.154 21.5485C14.7654 21.4985 15.1277 21.4047 15.4075 21.2621C15.9908 20.9649 16.465 20.4906 16.7622 19.9073C16.9048 19.6275 16.9986 19.2652 17.0486 18.6539C17.0994 18.032 17.1001 17.2349 17.1001 16.1L17.1001 11.325H12.3905C11.8606 11.325 11.4095 11.325 11.039 11.2947C10.6499 11.2629 10.2713 11.1933 9.90933 11.0089C9.36366 10.7309 8.92002 10.2872 8.64199 9.74155C8.45757 9.37962 8.38794 9.00102 8.35614 8.61186C8.32588 8.24143 8.32589 7.79025 8.3259 7.26038V2.39998H7.4001C6.26514 2.39998 5.46805 2.40068 4.8462 2.45148ZM10.1259 2.6133L10.1259 7.22498C10.1259 7.79988 10.1266 8.17693 10.1502 8.46528C10.1729 8.74313 10.2122 8.85847 10.2458 8.92437C10.3513 9.13134 10.5195 9.29962 10.7265 9.40508C10.7924 9.43866 10.9078 9.47802 11.1856 9.50072C11.474 9.52428 11.851 9.52498 12.4259 9.52498H16.9709C16.8174 9.01015 16.5313 8.53894 16.1343 8.16212L10.6014 2.94611C10.4586 2.81155 10.2983 2.69986 10.1259 2.6133Z" fill="#007AFF"/>
</svg>
